<?xml version="1.0" standalone="no"?>
<!DOCTYPE svg PUBLIC "-//W3C//DTD SVG 20010904//EN"
 "http://www.w3.org/TR/2001/REC-SVG-20010904/DTD/svg10.dtd">
<svg version="1.0" xmlns="http://www.w3.org/2000/svg"
 width="512.000000pt" height="512.000000pt" viewBox="0 0 512.000000 512.000000"
 preserveAspectRatio="xMidYMid meet">
<metadata>
Created by potrace 1.11, written by Peter Selinger 2001-2013
</metadata>
<g transform="translate(0.000000,512.000000) scale(0.100000,-0.100000)"
fill="#000000" stroke="none">
<path d="M2378 5115 c-2 -1 -39 -5 -82 -9 -44 -4 -82 -9 -85 -11 -4 -2 -34 -7
-66 -10 -109 -13 -458 -107 -500 -134 -5 -4 -28 -13 -50 -20 -63 -21 -281
-132 -380 -193 -378 -235 -690 -565 -904 -956 -33 -62 -61 -115 -61 -117 0 -2
-15 -36 -34 -77 -55 -121 -134 -358 -150 -451 -3 -15 -7 -35 -10 -45 -3 -9 -7
-34 -11 -56 -3 -21 -7 -41 -9 -45 -4 -6 -12 -68 -26 -201 -8 -81 -5 -463 5
-520 3 -19 12 -75 20 -125 29 -174 78 -357 142 -520 37 -93 123 -273 161 -335
12 -19 29 -48 38 -65 19 -35 138 -207 156 -227 7 -7 29 -34 48 -58 142 -185
404 -415 633 -556 278 -172 645 -310 936 -350 20 -3 79 -11 131 -18 91 -12
508 -15 555 -3 11 3 43 8 70 11 28 4 86 14 130 22 44 8 91 17 105 20 76 14
342 101 430 141 662 298 1145 807 1392 1468 35 95 29 75 77 260 22 83 42 174
46 204 4 30 8 63 11 74 12 63 19 184 19 342 0 217 -11 339 -44 500 -6 28 -13
61 -15 75 -11 56 -50 190 -78 270 -189 533 -523 966 -990 1284 -54 36 -101 66
-105 66 -3 0 -14 6 -22 14 -20 18 -257 137 -331 166 -153 61 -375 126 -494
144 -21 4 -41 8 -45 10 -3 2 -35 7 -71 11 -36 4 -76 10 -90 12 -29 5 -447 13
-452 8z"/>
</g>
</svg>
